<svg width="17" height="16" viewBox="0 0 17 16" fill="none" xmlns="http://www.w3.org/2000/svg">
<path id="add_call" d="M12.3583 7.11111V4.44444H9.69162V2.66667H12.3583V0H14.1361V2.66667H16.8027V4.44444H14.1361V7.11111H12.3583ZM15.8694 16C13.9583 16 12.0953 15.5741 10.2805 14.7222C8.4657 13.8704 6.85829 12.7444 5.45829 11.3444C4.05829 9.94444 2.93236 8.33704 2.08051 6.52222C1.22866 4.70741 0.802734 2.84444 0.802734 0.933333C0.802734 0.666667 0.891623 0.444444 1.0694 0.266667C1.24718 0.0888889 1.4694 0 1.73607 0H5.33607C5.54348 0 5.72866 0.0666667 5.89162 0.2C6.05459 0.333333 6.15088 0.503704 6.18051 0.711111L6.75829 3.82222C6.78792 4.02963 6.78422 4.21852 6.74718 4.38889C6.71014 4.55926 6.62496 4.71111 6.49162 4.84444L4.33607 7.02222C4.95829 8.08889 5.73977 9.08889 6.68051 10.0222C7.62125 10.9556 8.65459 11.763 9.78051 12.4444L11.8694 10.3556C12.0027 10.2222 12.1768 10.1222 12.3916 10.0556C12.6064 9.98889 12.8175 9.97037 13.025 10L16.0916 10.6222C16.299 10.6667 16.4694 10.7667 16.6027 10.9222C16.7361 11.0778 16.8027 11.2593 16.8027 11.4667V15.0667C16.8027 15.3333 16.7138 15.5556 16.5361 15.7333C16.3583 15.9111 16.1361 16 15.8694 16ZM3.49162 5.33333L4.95829 3.86667L4.58051 1.77778H2.60273C2.67681 2.38519 2.78051 2.98519 2.91385 3.57778C3.04718 4.17037 3.23977 4.75556 3.49162 5.33333ZM11.4472 13.2889C12.025 13.5407 12.6138 13.7407 13.2138 13.8889C13.8138 14.037 14.4175 14.1333 15.025 14.1778V12.2222L12.9361 11.8L11.4472 13.2889Z" fill="#8996A0"/>
</svg>
