<svg width="14" height="15" viewBox="0 0 14 15" fill="none" xmlns="http://www.w3.org/2000/svg">
<g id="akar-icons:star">
<path id="Vector" d="M6.45988 2.03588C6.64654 1.54354 7.35296 1.54354 7.54021 2.03588L8.74771 5.38071C8.78984 5.48967 8.86402 5.58329 8.96045 5.64921C9.05689 5.71514 9.17106 5.75027 9.28788 5.74996H12.2553C12.8036 5.74996 13.0428 6.43246 12.6117 6.76671L10.5 8.66663C10.4055 8.73934 10.3363 8.84015 10.3026 8.95459C10.2688 9.06903 10.2722 9.19122 10.3122 9.30363L11.0834 12.572C11.2712 13.097 10.6634 13.548 10.2037 13.2248L7.33546 11.4048C7.23724 11.3358 7.1201 11.2987 7.00004 11.2987C6.87999 11.2987 6.76285 11.3358 6.66463 11.4048L3.79638 13.2248C3.33729 13.548 2.72888 13.0965 2.91671 12.572L3.68788 9.30363C3.72788 9.19122 3.73125 9.06903 3.69751 8.95459C3.66376 8.84015 3.59464 8.73934 3.50004 8.66663L1.38838 6.76671C0.956711 6.43246 1.19704 5.74996 1.74421 5.74996H4.71163C4.82846 5.75035 4.94267 5.71525 5.03912 5.64932C5.13558 5.58338 5.20974 5.48971 5.25179 5.38071L6.45929 2.03588H6.45988Z" fill="#FFD057" stroke="#FFD057" stroke-linecap="round" stroke-linejoin="round"/>
</g>
</svg>
