<svg width="31" height="23" viewBox="0 0 31 23" fill="none" xmlns="http://www.w3.org/2000/svg">
<g id="CARD ICON">
<g id="Group">
<path id="Vector" d="M24.7811 4.49744C24.7811 4.41084 24.8164 4.32624 24.8816 4.26268C24.9471 4.19888 25.0374 4.16175 25.1331 4.16175H27.693C27.7887 4.16175 27.879 4.19888 27.9445 4.26268L28.1434 4.05854L27.9445 4.26268C28.0097 4.32624 28.045 4.41084 28.045 4.49744V5.74475C28.045 5.83135 28.0097 5.91595 27.9445 5.97951C27.879 6.04331 27.7887 6.08044 27.693 6.08044H25.1331C25.0374 6.08044 24.9471 6.04331 24.8816 5.97951C24.8164 5.91595 24.7811 5.83135 24.7811 5.74475V4.49744Z" fill="black" stroke="#2B2B2B" stroke-width="0.575942"/>
<path id="Vector_2" d="M29.6128 9.151H29.9008V8.86303V2.62646C29.9008 2.21685 29.7337 1.82556 29.4389 1.53824C29.1444 1.25117 28.7464 1.09118 28.3329 1.09118H12.9739C12.5604 1.09118 12.1624 1.25117 11.8679 1.53824C11.5731 1.82556 11.406 2.21685 11.406 2.62646V8.86303V9.151H11.694H29.6128ZM11.694 11.0697H11.406V11.3577V12.605C11.406 13.0146 11.5731 13.4059 11.8679 13.6932C12.1624 13.9803 12.5604 14.1402 12.9739 14.1402H28.3329C28.7464 14.1402 29.1444 13.9803 29.4389 13.6932C29.7337 13.4059 29.9008 13.0146 29.9008 12.605V11.3577V11.0697H29.6128H11.694ZM11.3648 1.06873C11.7903 0.654051 12.369 0.419807 12.9739 0.419807H28.3329C28.9378 0.419807 29.5165 0.654051 29.942 1.06873C30.3673 1.48317 30.6048 2.04365 30.6048 2.62646V12.605C30.6048 13.1878 30.3673 13.7483 29.942 14.1627C29.5165 14.5774 28.9378 14.8116 28.3329 14.8116H12.9739C12.369 14.8116 11.7903 14.5774 11.3648 14.1627C10.9395 13.7483 10.702 13.1878 10.702 12.605V2.62646C10.702 2.04365 10.9395 1.48317 11.3648 1.06873Z" fill="black" stroke="#2B2B2B" stroke-width="0.575942"/>
</g>
<g id="Group_2">
<path id="Vector_3" d="M0.462776 9.83325C0.462776 9.25044 0.700278 8.68995 1.12555 8.27552C1.55107 7.86084 2.12974 7.62659 2.73464 7.62659H18.0936C18.6985 7.62659 19.2772 7.86084 19.7027 8.27552C20.128 8.68995 20.3655 9.25044 20.3655 9.83325V15.7818H0.462776V9.83325ZM14.8939 10.7926C14.6501 10.7926 14.4149 10.8869 14.2403 11.057C14.0655 11.2273 13.9659 11.46 13.9659 11.7042V12.9515C13.9659 13.1957 14.0655 13.4284 14.2403 13.5988C14.4149 13.7689 14.6501 13.8632 14.8939 13.8632H17.4537C17.6974 13.8632 17.9326 13.7689 18.1072 13.5988C18.282 13.4284 18.3816 13.1957 18.3816 12.9515V11.7042C18.3816 11.46 18.282 11.2273 18.1072 11.057C17.9326 10.8869 17.6974 10.7926 17.4537 10.7926H14.8939ZM0.462776 19.8117V18.8524H20.3655V19.8117C20.3655 20.3946 20.128 20.955 19.7027 21.3695C19.2772 21.7842 18.6985 22.0184 18.0936 22.0184H2.73464C2.12974 22.0184 1.55107 21.7842 1.12555 21.3695C0.700278 20.955 0.462776 20.3946 0.462776 19.8117Z" fill="black" stroke="#2B2B2B" stroke-width="0.575942"/>
</g>
</g>
</svg>
