<svg width="43" height="43" viewBox="0 0 43 43" fill="#FFFFFF" xmlns="http://www.w3.org/2000/svg">
<g id="Frame">
<path id="Vector" d="M16.7969 36.2812C16.7969 36.9457 16.5998 37.5952 16.2307 38.1476C15.8616 38.7001 15.3369 39.1306 14.7231 39.3849C14.1092 39.6392 13.4338 39.7057 12.7821 39.5761C12.1305 39.4465 11.5319 39.1265 11.0621 38.6567C10.5922 38.1869 10.2723 37.5883 10.1427 36.9366C10.0131 36.285 10.0796 35.6095 10.3338 34.9957C10.5881 34.3818 11.0187 33.8572 11.5711 33.488C12.1236 33.1189 12.7731 32.9219 13.4375 32.9219C14.3285 32.9219 15.1829 33.2758 15.8129 33.9058C16.4429 34.5358 16.7969 35.3903 16.7969 36.2812ZM30.9062 32.9219C30.2418 32.9219 29.5923 33.1189 29.0399 33.488C28.4874 33.8572 28.0569 34.3818 27.8026 34.9957C27.5483 35.6095 27.4818 36.285 27.6114 36.9366C27.741 37.5883 28.061 38.1869 28.5308 38.6567C29.0006 39.1265 29.5992 39.4465 30.2509 39.5761C30.9025 39.7057 31.578 39.6392 32.1918 39.3849C32.8057 39.1306 33.3303 38.7001 33.6995 38.1476C34.0686 37.5952 34.2656 36.9457 34.2656 36.2812C34.2656 35.3903 33.9117 34.5358 33.2817 33.9058C32.6517 33.2758 31.7972 32.9219 30.9062 32.9219ZM39.5516 12.6867L34.9677 27.5855C34.6751 28.549 34.0795 29.3925 33.2695 29.9907C32.4595 30.5889 31.4782 30.91 30.4712 30.9062H13.9296C12.9082 30.9029 11.9154 30.5687 11.0999 29.9537C10.2844 29.3387 9.69019 28.476 9.40625 27.4948L3.6634 7.39062H2.01562C1.48105 7.39062 0.968366 7.17827 0.590363 6.80026C0.21236 6.42226 0 5.90958 0 5.375C0 4.84042 0.21236 4.32774 0.590363 3.94974C0.968366 3.57173 1.48105 3.35938 2.01562 3.35938H4.16898C4.89854 3.36163 5.60771 3.60038 6.19008 4.03981C6.77246 4.47925 7.19665 5.09567 7.39902 5.7966L8.62352 10.0781H37.625C37.9404 10.0781 38.2515 10.1521 38.5331 10.2942C38.8148 10.4363 39.0591 10.6425 39.2465 10.8963C39.4339 11.15 39.5592 11.4442 39.6121 11.7552C39.6651 12.0661 39.6444 12.3852 39.5516 12.6867ZM34.8955 14.1094H9.7741L13.283 26.3879C13.3231 26.5284 13.408 26.6519 13.5247 26.7398C13.6414 26.8277 13.7836 26.8752 13.9296 26.875H30.4712C30.615 26.8753 30.7551 26.8294 30.8709 26.7442C30.9867 26.6589 31.0721 26.5387 31.1145 26.4013L34.8955 14.1094Z" fill="#4D515B"/>
</g>
</svg>
