<svg width="22" height="17" viewBox="0 0 22 17" fill="none" xmlns="http://www.w3.org/2000/svg">
<path id="mail" d="M2.915 16.3799C2.33413 16.3799 1.83687 16.184 1.42321 15.7924C1.00956 15.4007 0.802734 14.9299 0.802734 14.3799V2.37988C0.802734 1.82988 1.00956 1.35905 1.42321 0.967383C1.83687 0.575716 2.33413 0.379883 2.915 0.379883H19.8132C20.394 0.379883 20.8913 0.575716 21.3049 0.967383C21.7186 1.35905 21.9254 1.82988 21.9254 2.37988V14.3799C21.9254 14.9299 21.7186 15.4007 21.3049 15.7924C20.8913 16.184 20.394 16.3799 19.8132 16.3799H2.915ZM11.3641 9.37988L2.915 4.37988V14.3799H19.8132V4.37988L11.3641 9.37988ZM11.3641 7.37988L19.8132 2.37988H2.915L11.3641 7.37988ZM2.915 4.37988V2.37988V14.3799V4.37988Z" fill="#8996A0"/>
</svg>
