<svg width="46" height="46" viewBox="0 0 46 46" fill="none" xmlns="http://www.w3.org/2000/svg">
<g id="Frame">
<path id="Vector" d="M23 3.59375C19.1618 3.59375 15.4098 4.73191 12.2185 6.86429C9.02713 8.99668 6.53978 12.0275 5.07097 15.5735C3.60216 19.1196 3.21785 23.0215 3.96664 26.786C4.71544 30.5504 6.56371 34.0083 9.27772 36.7223C11.9917 39.4363 15.4496 41.2846 19.214 42.0334C22.9785 42.7822 26.8804 42.3979 30.4265 40.929C33.9725 39.4602 37.0033 36.9729 39.1357 33.7815C41.2681 30.5902 42.4063 26.8382 42.4063 23C42.4006 17.8549 40.3541 12.9222 36.716 9.28401C33.0779 5.64587 28.1451 3.59946 23 3.59375ZM14.2977 35.3212C15.2987 33.9525 16.6085 32.8392 18.1205 32.0718C19.6326 31.3043 21.3043 30.9043 23 30.9043C24.6957 30.9043 26.3674 31.3043 27.8795 32.0718C29.3916 32.8392 30.7013 33.9525 31.7023 35.3212C29.1589 37.1249 26.118 38.0937 23 38.0937C19.882 38.0937 16.8411 37.1249 14.2977 35.3212ZM17.9688 21.5625C17.9688 20.5674 18.2638 19.5947 18.8167 18.7673C19.3695 17.9399 20.1553 17.295 21.0746 16.9142C21.994 16.5334 23.0056 16.4338 23.9816 16.6279C24.9575 16.8221 25.854 17.3012 26.5576 18.0049C27.2613 18.7085 27.7405 19.605 27.9346 20.581C28.1287 21.5569 28.0291 22.5685 27.6483 23.4879C27.2675 24.4072 26.6226 25.193 25.7952 25.7458C24.9678 26.2987 23.9951 26.5938 23 26.5938C21.6656 26.5938 20.3859 26.0637 19.4424 25.1201C18.4988 24.1766 17.9688 22.8969 17.9688 21.5625ZM34.8594 32.333C33.4618 30.5554 31.6804 29.1168 29.6484 28.1247C30.9434 26.8133 31.8217 25.1482 32.1727 23.339C32.5237 21.5297 32.3319 19.657 31.6212 17.9565C30.9106 16.256 29.7129 14.8036 28.1789 13.7821C26.6449 12.7606 24.843 12.2156 23 12.2156C21.157 12.2156 19.3551 12.7606 17.8211 13.7821C16.2871 14.8036 15.0894 16.256 14.3788 17.9565C13.6682 19.657 13.4763 21.5297 13.8273 23.339C14.1783 25.1482 15.0566 26.8133 16.3516 28.1247C14.3196 29.1168 12.5382 30.5554 11.1406 32.333C9.38517 30.1076 8.29177 27.433 7.98559 24.6152C7.67942 21.7974 8.17285 18.9503 9.4094 16.3998C10.6459 13.8494 12.5756 11.6987 14.9776 10.1939C17.3795 8.68907 20.1566 7.89098 22.991 7.89098C25.8254 7.89098 28.6025 8.68907 31.0045 10.1939C33.4064 11.6987 35.3361 13.8494 36.5727 16.3998C37.8092 18.9503 38.3026 21.7974 37.9965 24.6152C37.6903 27.433 36.5969 30.1076 34.8414 32.333H34.8594Z" fill="#4D515B"/>
</g>
</svg>
