<svg width="23" height="22" viewBox="0 0 23 22" fill="none" xmlns="http://www.w3.org/2000/svg">
<path id="Vector" d="M19.5967 3.20106C18.5832 2.18238 17.3759 1.3747 16.0453 0.825119C14.7148 0.275542 13.2876 -0.00492811 11.847 6.55264e-05C5.81077 6.55264e-05 0.891177 4.89505 0.891177 10.901C0.891177 12.826 1.39972 14.696 2.35047 16.346L0.802734 22L6.60675 20.482C8.20977 21.351 10.0118 21.813 11.847 21.813C17.8831 21.813 22.8027 16.918 22.8027 10.912C22.8027 7.99704 21.664 5.25805 19.5967 3.20106ZM11.847 19.965C10.2108 19.965 8.60776 19.525 7.20374 18.7L6.87208 18.502L3.42283 19.404L4.34042 16.06L4.11932 15.719C3.21029 14.2747 2.72761 12.6052 2.72635 10.901C2.72635 5.90705 6.8168 1.83706 11.8359 1.83706C14.2681 1.83706 16.5565 2.78306 18.2701 4.49905C19.1185 5.33941 19.7909 6.33898 20.2483 7.43981C20.7056 8.54065 20.9388 9.72086 20.9344 10.912C20.9565 15.906 16.866 19.965 11.847 19.965ZM16.8439 13.189C16.5676 13.057 15.2188 12.397 14.9756 12.298C14.7213 12.21 14.5444 12.166 14.3565 12.43C14.1686 12.705 13.649 13.321 13.4942 13.497C13.3394 13.684 13.1736 13.706 12.8972 13.563C12.6208 13.431 11.7364 13.134 10.6972 12.21C9.87912 11.484 9.33741 10.593 9.17158 10.318C9.0168 10.043 9.14947 9.90004 9.29319 9.75704C9.41479 9.63604 9.56957 9.43804 9.70223 9.28404C9.83489 9.13004 9.89017 9.00904 9.97861 8.83304C10.0671 8.64604 10.0228 8.49204 9.9565 8.36004C9.89017 8.22804 9.33741 6.88605 9.1163 6.33605C8.8952 5.80805 8.66303 5.87405 8.49721 5.86305H7.96655C7.77861 5.86305 7.49118 5.92905 7.2369 6.20405C6.99369 6.47905 6.28615 7.13904 6.28615 8.48104C6.28615 9.82304 7.27007 11.121 7.40273 11.297C7.5354 11.484 9.33741 14.234 12.0791 15.411C12.7314 15.697 13.2399 15.862 13.6379 15.983C14.2902 16.192 14.8872 16.159 15.3625 16.093C15.8932 16.016 16.9877 15.433 17.2088 14.795C17.4409 14.157 17.4409 13.618 17.3635 13.497C17.2861 13.376 17.1203 13.321 16.8439 13.189Z" fill="#8996A0"/>
</svg>
